<svg xmlns="http://www.w3.org/2000/svg" viewBox="0 0 34 23" width="34" height="23">
	<style>
		tspan { white-space:pre }
		.shp0 { fill: #ffffff } 
	</style>
	<g id="первый экран">
		<path id="Rounded Rectangle 1 copy 2" class="shp0" d="M6.09 10.5L17.98 18.28C18.92 18.89 18.92 19.89 17.98 20.5C17.04 21.11 15.52 21.11 14.58 20.5L2.69 12.72C1.75 12.11 1.75 11.11 2.69 10.5C3.63 9.89 5.15 9.89 6.09 10.5ZM27.85 10.45L15.87 18.28C14.93 18.9 14.93 19.9 15.87 20.52C16.82 21.14 18.35 21.14 19.29 20.52L31.27 12.69C32.21 12.07 32.21 11.07 31.27 10.45C30.32 9.84 28.79 9.84 27.85 10.45ZM9 2.36L17.72 8.02C18.41 8.47 18.41 9.19 17.72 9.64C17.03 10.08 15.92 10.08 15.23 9.64L6.51 3.98C5.82 3.53 5.82 2.81 6.51 2.36C7.19 1.92 8.31 1.92 9 2.36ZM24.95 2.33L16.17 8.02C15.48 8.47 15.48 9.2 16.17 9.65C16.87 10.1 17.99 10.1 18.68 9.65L27.46 3.96C28.16 3.51 28.16 2.78 27.46 2.33C26.77 1.88 25.65 1.88 24.95 2.33Z" />
	</g>
</svg>